<mxfile host="app.diagrams.net" modified="2023-11-01T01:23:12.126Z" agent="Mozilla/5.0 (Windows NT 10.0; Win64; x64) AppleWebKit/537.36 (KHTML, like Gecko) Chrome/115.0.0.0 Safari/537.36" version="22.0.8" etag="Q8jZ4Y8087hjV44fO0oI" type="github">
  <diagram name="Trang-1" id="D3Yo9h6WVFVZc7WA2Z-Q">
    <mxGraphModel>
      <root>
        <mxCell id="0" />
        <mxCell id="1" parent="0" />
      </root>
    </mxGraphModel>
  </diagram>
</mxfile>
